<svg data-v-423bf9ae="" xmlns="http://www.w3.org/2000/svg" viewBox="0 0 882.9777406502556 60" class="font"><!----><!----><!----><g data-v-423bf9ae="" id="f17a05aa-68b9-4bc6-9bbe-9500565441b5" fill="white" transform="matrix(5.988024248455585,0,0,5.988024248455585,-2.5149624188975963,-24.491020566720493)"><path d="M4.28 14.11Q3.14 14.11 2.26 13.66Q1.39 13.22 0.90 12.40Q0.42 11.58 0.42 10.50L0.42 10.50L0.42 7.67Q0.42 6.61 0.90 5.80Q1.39 4.98 2.26 4.54Q3.14 4.09 4.28 4.09L4.28 4.09Q5.43 4.09 6.31 4.51Q7.18 4.93 7.67 5.69Q8.15 6.45 8.15 7.46L8.15 7.46Q8.15 7.59 7.90 7.62L7.90 7.62L5.80 7.76L5.73 7.76Q5.52 7.76 5.52 7.69L5.52 7.69L5.52 7.60Q5.52 7.03 5.18 6.68Q4.84 6.34 4.28 6.34L4.28 6.34Q3.72 6.34 3.39 6.68Q3.05 7.03 3.05 7.60L3.05 7.60L3.05 10.61Q3.05 11.17 3.39 11.52Q3.72 11.86 4.28 11.86L4.28 11.86Q4.84 11.86 5.18 11.52Q5.52 11.17 5.52 10.61L5.52 10.61Q5.52 10.54 5.59 10.49Q5.67 10.44 5.80 10.46L5.80 10.46L7.90 10.57Q8.15 10.58 8.15 10.64L8.15 10.64L8.15 10.71Q8.15 11.72 7.67 12.49Q7.18 13.26 6.31 13.69Q5.43 14.11 4.28 14.11L4.28 14.11ZM12.40 14.11Q11.07 14.11 10.16 13.40Q9.24 12.68 8.95 11.47L8.95 11.47Q8.81 10.96 8.81 10.35L8.81 10.35Q8.81 9.66 8.97 9.10L8.97 9.10Q9.31 7.94 10.21 7.27Q11.12 6.61 12.42 6.61L12.42 6.61Q13.72 6.61 14.61 7.27Q15.50 7.94 15.83 9.07L15.83 9.07Q16.00 9.66 16.00 10.32L16.00 10.32Q16.00 10.85 15.89 11.38L15.89 11.38Q15.60 12.64 14.68 13.38Q13.76 14.11 12.40 14.11L12.40 14.11ZM12.40 11.86Q12.77 11.86 12.99 11.61Q13.22 11.37 13.30 10.96L13.30 10.96Q13.36 10.70 13.36 10.33L13.36 10.33Q13.36 10.01 13.29 9.69L13.29 9.69Q13.08 8.86 12.40 8.86L12.40 8.86Q11.70 8.86 11.52 9.69L11.52 9.69Q11.45 9.93 11.45 10.33L11.45 10.33Q11.45 10.70 11.51 10.96L11.51 10.96Q11.72 11.86 12.40 11.86L12.40 11.86ZM17.08 14Q16.81 14 16.81 13.73L16.81 13.73L16.81 4.47Q16.81 4.20 17.08 4.20L17.08 4.20L19.18 4.20Q19.45 4.20 19.45 4.47L19.45 4.47L19.45 13.73Q19.45 14 19.18 14L19.18 14L17.08 14ZM23.86 14.11Q22.53 14.11 21.61 13.40Q20.69 12.68 20.40 11.47L20.40 11.47Q20.26 10.96 20.26 10.35L20.26 10.35Q20.26 9.66 20.43 9.10L20.43 9.10Q20.76 7.94 21.66 7.27Q22.57 6.61 23.87 6.61L23.87 6.61Q25.17 6.61 26.06 7.27Q26.95 7.94 27.29 9.07L27.29 9.07Q27.45 9.66 27.45 10.32L27.45 10.32Q27.45 10.85 27.34 11.38L27.34 11.38Q27.05 12.64 26.13 13.38Q25.21 14.11 23.86 14.11L23.86 14.11ZM23.86 11.86Q24.22 11.86 24.44 11.61Q24.67 11.37 24.75 10.96L24.75 10.96Q24.81 10.70 24.81 10.33L24.81 10.33Q24.81 10.01 24.74 9.69L24.74 9.69Q24.53 8.86 23.86 8.86L23.86 8.86Q23.16 8.86 22.97 9.69L22.97 9.69Q22.90 9.93 22.90 10.33L22.90 10.33Q22.90 10.70 22.96 10.96L22.96 10.96Q23.17 11.86 23.86 11.86L23.86 11.86ZM32.31 6.62Q32.75 6.62 33.03 6.78L33.03 6.78Q33.21 6.87 33.17 7.11L33.17 7.11L32.83 9.17Q32.79 9.41 32.52 9.35L32.52 9.35Q32.37 9.31 32.14 9.31L32.14 9.31Q31.95 9.31 31.74 9.35L31.74 9.35Q31.37 9.42 31.12 9.65Q30.86 9.88 30.86 10.28L30.86 10.28L30.86 13.73Q30.86 14 30.59 14L30.59 14L28.49 14Q28.22 14 28.22 13.73L28.22 13.73L28.22 6.99Q28.22 6.72 28.49 6.72L28.49 6.72L30.59 6.72Q30.86 6.72 30.86 6.99L30.86 6.99L30.86 7.18Q30.86 7.25 30.89 7.28Q30.93 7.31 30.97 7.25L30.97 7.25Q31.49 6.62 32.31 6.62L32.31 6.62ZM40.92 4.20Q41.92 4.20 42.67 4.60Q43.43 5.00 43.84 5.73Q44.25 6.47 44.25 7.42L44.25 7.42Q44.25 8.36 43.82 9.07Q43.39 9.79 42.60 10.18Q41.82 10.57 40.80 10.57L40.80 10.57L39.35 10.57Q39.24 10.57 39.24 10.68L39.24 10.68L39.24 13.73Q39.24 14 38.98 14L38.98 14L36.88 14Q36.61 14 36.61 13.73L36.61 13.73L36.61 4.47Q36.61 4.20 36.88 4.20L36.88 4.20L40.92 4.20ZM40.49 8.47Q41.01 8.47 41.32 8.20Q41.64 7.92 41.64 7.48L41.64 7.48Q41.64 7.01 41.32 6.73Q41.01 6.45 40.49 6.45L40.49 6.45L39.35 6.45Q39.24 6.45 39.24 6.57L39.24 6.57L39.24 8.36Q39.24 8.47 39.35 8.47L39.35 8.47L40.49 8.47ZM47.99 6.61Q48.94 6.61 49.74 6.93Q50.54 7.25 51.00 7.81Q51.46 8.37 51.46 9.03L51.46 9.03L51.46 13.73Q51.46 14 51.20 14L51.20 14L49.10 14Q48.83 14 48.83 13.73L48.83 13.73L48.83 13.48Q48.83 13.41 48.80 13.40Q48.76 13.38 48.71 13.44L48.71 13.44Q48.47 13.79 48.05 13.95Q47.63 14.11 47.00 14.11L47.00 14.11Q45.85 14.11 45.19 13.59Q44.53 13.06 44.53 12.05L44.53 12.05Q44.53 10.99 45.28 10.42Q46.03 9.84 47.46 9.84L47.46 9.84L48.72 9.84Q48.83 9.84 48.83 9.73L48.83 9.73L48.83 9.52Q48.83 9.23 48.61 9.04Q48.40 8.86 48.03 8.86L48.03 8.86Q47.80 8.86 47.61 8.94Q47.42 9.02 47.33 9.14L47.33 9.14Q47.25 9.25 47.19 9.30Q47.14 9.34 47.03 9.32L47.03 9.32L44.87 9.04Q44.62 9.02 44.63 8.83L44.63 8.83Q44.69 8.20 45.14 7.70Q45.60 7.20 46.34 6.90Q47.08 6.61 47.99 6.61L47.99 6.61ZM47.81 12.29Q48.26 12.29 48.54 12.05Q48.83 11.82 48.83 11.41L48.83 11.41L48.83 11.27Q48.83 11.16 48.72 11.16L48.72 11.16L48.06 11.16Q47.18 11.16 47.18 11.73L47.18 11.73Q47.18 11.98 47.34 12.14Q47.50 12.29 47.81 12.29L47.81 12.29ZM52.70 14Q52.43 14 52.43 13.73L52.43 13.73L52.43 4.47Q52.43 4.20 52.70 4.20L52.70 4.20L54.80 4.20Q55.06 4.20 55.06 4.47L55.06 4.47L55.06 13.73Q55.06 14 54.80 14L54.80 14L52.70 14ZM59.86 11.89Q60.28 11.89 60.65 11.78Q61.01 11.68 61.25 11.49L61.25 11.49Q61.36 11.41 61.43 11.41L61.43 11.41Q61.53 11.41 61.61 11.52L61.61 11.52L62.57 12.84Q62.64 12.95 62.64 13.01L62.64 13.01Q62.64 13.10 62.54 13.20L62.54 13.20Q62.03 13.66 61.31 13.89Q60.59 14.11 59.77 14.11L59.77 14.11Q58.72 14.11 57.91 13.74Q57.11 13.37 56.60 12.68L56.60 12.68Q55.90 11.70 55.90 10.30L55.90 10.30Q55.90 9.70 56.06 9.13L56.06 9.13Q56.38 7.99 57.32 7.30Q58.27 6.61 59.51 6.61L59.51 6.61Q60.96 6.61 61.85 7.54Q62.75 8.47 63.03 10.08L63.03 10.08Q63.10 10.42 63.11 10.75L63.11 10.75Q63.11 11.02 62.85 11.02L62.85 11.02L58.69 11.02Q58.58 11.02 58.59 11.14L58.59 11.14L58.66 11.33Q58.93 11.89 59.86 11.89L59.86 11.89ZM59.46 8.86Q58.88 8.86 58.66 9.42L58.66 9.42L58.62 9.53L58.60 9.58Q58.60 9.66 58.72 9.66L58.72 9.66L60.23 9.66Q60.34 9.66 60.34 9.58L60.34 9.58Q60.34 9.53 60.32 9.49Q60.30 9.45 60.28 9.42L60.28 9.42Q60.05 8.86 59.46 8.86L59.46 8.86ZM68.36 8.55Q68.36 8.82 68.10 8.82L68.10 8.82L67.03 8.82Q66.92 8.82 66.92 8.93L66.92 8.93L66.92 11.00Q66.92 11.70 67.42 11.70L67.42 11.70L67.89 11.70Q68.15 11.70 68.15 11.97L68.15 11.97L68.15 13.66Q68.15 13.90 67.90 13.93L67.90 13.93Q67.35 13.97 66.89 13.97L66.89 13.97Q65.62 13.97 65.02 13.58Q64.41 13.19 64.40 12.10L64.40 12.10L64.40 8.93Q64.40 8.82 64.29 8.82L64.29 8.82L63.63 8.82Q63.36 8.82 63.36 8.55L63.36 8.55L63.36 6.99Q63.36 6.72 63.63 6.72L63.63 6.72L64.29 6.72Q64.40 6.72 64.40 6.61L64.40 6.61L64.40 5.03Q64.40 4.76 64.67 4.76L64.67 4.76L66.65 4.76Q66.92 4.76 66.92 5.03L66.92 5.03L66.92 6.61Q66.92 6.72 67.03 6.72L67.03 6.72L68.10 6.72Q68.36 6.72 68.36 6.99L68.36 6.99L68.36 8.55ZM73.84 8.55Q73.84 8.82 73.57 8.82L73.57 8.82L72.51 8.82Q72.39 8.82 72.39 8.93L72.39 8.93L72.39 11.00Q72.39 11.70 72.90 11.70L72.90 11.70L73.36 11.70Q73.63 11.70 73.63 11.97L73.63 11.97L73.63 13.66Q73.63 13.90 73.37 13.93L73.37 13.93Q72.83 13.97 72.37 13.97L72.37 13.97Q71.09 13.97 70.49 13.58Q69.89 13.19 69.87 12.10L69.87 12.10L69.87 8.93Q69.87 8.82 69.76 8.82L69.76 8.82L69.10 8.82Q68.84 8.82 68.84 8.55L68.84 8.55L68.84 6.99Q68.84 6.72 69.10 6.72L69.10 6.72L69.76 6.72Q69.87 6.72 69.87 6.61L69.87 6.61L69.87 5.03Q69.87 4.76 70.14 4.76L70.14 4.76L72.13 4.76Q72.39 4.76 72.39 5.03L72.39 5.03L72.39 6.61Q72.39 6.72 72.51 6.72L72.51 6.72L73.57 6.72Q73.84 6.72 73.84 6.99L73.84 6.99L73.84 8.55ZM78.36 11.89Q78.78 11.89 79.14 11.78Q79.51 11.68 79.74 11.49L79.74 11.49Q79.86 11.41 79.93 11.41L79.93 11.41Q80.02 11.41 80.11 11.52L80.11 11.52L81.06 12.84Q81.13 12.95 81.13 13.01L81.13 13.01Q81.13 13.10 81.03 13.20L81.03 13.20Q80.53 13.66 79.81 13.89Q79.09 14.11 78.26 14.11L78.26 14.11Q77.21 14.11 76.40 13.74Q75.60 13.37 75.10 12.68L75.10 12.68Q74.40 11.70 74.40 10.30L74.40 10.30Q74.40 9.70 74.55 9.13L74.55 9.13Q74.87 7.99 75.82 7.30Q76.76 6.61 78.01 6.61L78.01 6.61Q79.45 6.61 80.35 7.54Q81.24 8.47 81.52 10.08L81.52 10.08Q81.59 10.42 81.61 10.75L81.61 10.75Q81.61 11.02 81.34 11.02L81.34 11.02L77.18 11.02Q77.07 11.02 77.08 11.14L77.08 11.14L77.15 11.33Q77.42 11.89 78.36 11.89L78.36 11.89ZM77.95 8.86Q77.38 8.86 77.15 9.42L77.15 9.42L77.11 9.53L77.10 9.58Q77.10 9.66 77.21 9.66L77.21 9.66L78.72 9.66Q78.83 9.66 78.83 9.58L78.83 9.58Q78.83 9.53 78.81 9.49Q78.79 9.45 78.78 9.42L78.78 9.42Q78.54 8.86 77.95 8.86L77.95 8.86ZM88.93 14.11Q87.78 14.11 86.90 13.65Q86.03 13.19 85.55 12.35Q85.06 11.51 85.06 10.42L85.06 10.42L85.06 7.77Q85.06 6.68 85.55 5.85Q86.03 5.01 86.90 4.55Q87.78 4.09 88.93 4.09L88.93 4.09Q90.05 4.09 90.93 4.53Q91.81 4.97 92.29 5.73Q92.78 6.48 92.78 7.38L92.78 7.38Q92.78 7.60 92.51 7.60L92.51 7.60L90.43 7.60Q90.16 7.60 90.16 7.53L90.16 7.53L90.16 7.48Q90.16 7.01 89.83 6.68Q89.50 6.34 88.93 6.34L88.93 6.34Q88.37 6.34 88.03 6.71Q87.70 7.08 87.70 7.70L87.70 7.70L87.70 10.50Q87.70 11.10 88.08 11.48Q88.47 11.86 89.04 11.86L89.04 11.86Q89.56 11.86 89.89 11.57Q90.22 11.28 90.22 10.78L90.22 10.78L90.22 10.64Q90.22 10.53 90.10 10.53L90.10 10.53L88.97 10.53Q88.70 10.53 88.70 10.26L88.70 10.26L88.70 8.69Q88.70 8.43 88.97 8.43L88.97 8.43L92.51 8.43Q92.78 8.43 92.78 8.69L92.78 8.69L92.78 10.56Q92.78 11.59 92.29 12.40Q91.81 13.22 90.94 13.66Q90.06 14.11 88.93 14.11L88.93 14.11ZM97.43 11.89Q97.85 11.89 98.21 11.78Q98.57 11.68 98.81 11.49L98.81 11.49Q98.92 11.41 98.99 11.41L98.99 11.41Q99.09 11.41 99.18 11.52L99.18 11.52L100.13 12.84Q100.20 12.95 100.20 13.01L100.20 13.01Q100.20 13.10 100.10 13.20L100.10 13.20Q99.60 13.66 98.87 13.89Q98.15 14.11 97.33 14.11L97.33 14.11Q96.28 14.11 95.47 13.74Q94.67 13.37 94.16 12.68L94.16 12.68Q93.46 11.70 93.46 10.30L93.46 10.30Q93.46 9.70 93.62 9.13L93.62 9.13Q93.94 7.99 94.88 7.30Q95.83 6.61 97.08 6.61L97.08 6.61Q98.52 6.61 99.41 7.54Q100.31 8.47 100.59 10.08L100.59 10.08Q100.66 10.42 100.67 10.75L100.67 10.75Q100.67 11.02 100.41 11.02L100.41 11.02L96.25 11.02Q96.14 11.02 96.15 11.14L96.15 11.14L96.22 11.33Q96.49 11.89 97.43 11.89L97.43 11.89ZM97.02 8.86Q96.45 8.86 96.22 9.42L96.22 9.42L96.18 9.53L96.17 9.58Q96.17 9.66 96.28 9.66L96.28 9.66L97.79 9.66Q97.90 9.66 97.90 9.58L97.90 9.58Q97.90 9.53 97.88 9.49Q97.86 9.45 97.85 9.42L97.85 9.42Q97.61 8.86 97.02 8.86L97.02 8.86ZM105.74 6.61Q106.44 6.61 107.00 6.92Q107.56 7.22 107.89 7.82Q108.22 8.41 108.22 9.23L108.22 9.23L108.22 13.73Q108.22 14 107.95 14L107.95 14L105.85 14Q105.59 14 105.59 13.73L105.59 13.73L105.59 9.80Q105.59 9.38 105.37 9.12Q105.15 8.86 104.80 8.86L104.80 8.86Q104.44 8.86 104.22 9.12Q104.01 9.38 104.01 9.80L104.01 9.80L104.01 13.73Q104.01 14 103.74 14L103.74 14L101.64 14Q101.37 14 101.37 13.73L101.37 13.73L101.37 6.99Q101.37 6.72 101.64 6.72L101.64 6.72L103.74 6.72Q104.01 6.72 104.01 6.99L104.01 6.99L104.01 7.35Q104.01 7.42 104.04 7.44Q104.08 7.46 104.12 7.41L104.12 7.41Q104.65 6.61 105.74 6.61L105.74 6.61ZM112.94 11.89Q113.36 11.89 113.72 11.78Q114.09 11.68 114.32 11.49L114.32 11.49Q114.44 11.41 114.51 11.41L114.51 11.41Q114.60 11.41 114.69 11.52L114.69 11.52L115.64 12.84Q115.71 12.95 115.71 13.01L115.71 13.01Q115.71 13.10 115.61 13.20L115.61 13.20Q115.11 13.66 114.39 13.89Q113.67 14.11 112.84 14.11L112.84 14.11Q111.79 14.11 110.98 13.74Q110.18 13.37 109.68 12.68L109.68 12.68Q108.98 11.70 108.98 10.30L108.98 10.30Q108.98 9.70 109.13 9.13L109.13 9.13Q109.45 7.99 110.40 7.30Q111.34 6.61 112.59 6.61L112.59 6.61Q114.03 6.61 114.93 7.54Q115.82 8.47 116.10 10.08L116.10 10.08Q116.17 10.42 116.19 10.75L116.19 10.75Q116.19 11.02 115.92 11.02L115.92 11.02L111.76 11.02Q111.65 11.02 111.66 11.14L111.66 11.14L111.73 11.33Q112.00 11.89 112.94 11.89L112.94 11.89ZM112.53 8.86Q111.96 8.86 111.73 9.42L111.73 9.42L111.69 9.53L111.68 9.58Q111.68 9.66 111.79 9.66L111.79 9.66L113.30 9.66Q113.41 9.66 113.41 9.58L113.41 9.58Q113.41 9.53 113.39 9.49Q113.37 9.45 113.36 9.42L113.36 9.42Q113.12 8.86 112.53 8.86L112.53 8.86ZM120.97 6.62Q121.41 6.62 121.69 6.78L121.69 6.78Q121.87 6.87 121.83 7.11L121.83 7.11L121.49 9.17Q121.45 9.41 121.18 9.35L121.18 9.35Q121.03 9.31 120.81 9.31L120.81 9.31Q120.61 9.31 120.40 9.35L120.40 9.35Q120.04 9.42 119.78 9.65Q119.52 9.88 119.52 10.28L119.52 10.28L119.52 13.73Q119.52 14 119.25 14L119.25 14L117.15 14Q116.89 14 116.89 13.73L116.89 13.73L116.89 6.99Q116.89 6.72 117.15 6.72L117.15 6.72L119.25 6.72Q119.52 6.72 119.52 6.99L119.52 6.99L119.52 7.18Q119.52 7.25 119.55 7.28Q119.59 7.31 119.63 7.25L119.63 7.25Q120.15 6.62 120.97 6.62L120.97 6.62ZM125.48 6.61Q126.43 6.61 127.23 6.93Q128.03 7.25 128.49 7.81Q128.95 8.37 128.95 9.03L128.95 9.03L128.95 13.73Q128.95 14 128.69 14L128.69 14L126.59 14Q126.32 14 126.32 13.73L126.32 13.73L126.32 13.48Q126.32 13.41 126.29 13.40Q126.25 13.38 126.20 13.44L126.20 13.44Q125.96 13.79 125.54 13.95Q125.12 14.11 124.49 14.11L124.49 14.11Q123.34 14.11 122.68 13.59Q122.02 13.06 122.02 12.05L122.02 12.05Q122.02 10.99 122.77 10.42Q123.52 9.84 124.95 9.84L124.95 9.84L126.21 9.84Q126.32 9.84 126.32 9.73L126.32 9.73L126.32 9.52Q126.32 9.23 126.10 9.04Q125.89 8.86 125.52 8.86L125.52 8.86Q125.29 8.86 125.10 8.94Q124.91 9.02 124.82 9.14L124.82 9.14Q124.74 9.25 124.68 9.30Q124.63 9.34 124.52 9.32L124.52 9.32L122.36 9.04Q122.11 9.02 122.12 8.83L122.12 8.83Q122.18 8.20 122.63 7.70Q123.09 7.20 123.83 6.90Q124.57 6.61 125.48 6.61L125.48 6.61ZM125.30 12.29Q125.75 12.29 126.03 12.05Q126.32 11.82 126.32 11.41L126.32 11.41L126.32 11.27Q126.32 11.16 126.21 11.16L126.21 11.16L125.55 11.16Q124.67 11.16 124.67 11.73L124.67 11.73Q124.67 11.98 124.83 12.14Q124.99 12.29 125.30 12.29L125.30 12.29ZM134.43 8.55Q134.43 8.82 134.16 8.82L134.16 8.82L133.10 8.82Q132.99 8.82 132.99 8.93L132.99 8.93L132.99 11.00Q132.99 11.70 133.49 11.70L133.49 11.70L133.95 11.70Q134.22 11.70 134.22 11.97L134.22 11.97L134.22 13.66Q134.22 13.90 133.97 13.93L133.97 13.93Q133.42 13.97 132.96 13.97L132.96 13.97Q131.68 13.97 131.08 13.58Q130.48 13.19 130.47 12.10L130.47 12.10L130.47 8.93Q130.47 8.82 130.35 8.82L130.35 8.82L129.70 8.82Q129.43 8.82 129.43 8.55L129.43 8.55L129.43 6.99Q129.43 6.72 129.70 6.72L129.70 6.72L130.35 6.72Q130.47 6.72 130.47 6.61L130.47 6.61L130.47 5.03Q130.47 4.76 130.73 4.76L130.73 4.76L132.72 4.76Q132.99 4.76 132.99 5.03L132.99 5.03L132.99 6.61Q132.99 6.72 133.10 6.72L133.10 6.72L134.16 6.72Q134.43 6.72 134.43 6.99L134.43 6.99L134.43 8.55ZM138.56 14.11Q137.23 14.11 136.31 13.40Q135.39 12.68 135.10 11.47L135.10 11.47Q134.96 10.96 134.96 10.35L134.96 10.35Q134.96 9.66 135.13 9.10L135.13 9.10Q135.46 7.94 136.37 7.27Q137.27 6.61 138.57 6.61L138.57 6.61Q139.87 6.61 140.76 7.27Q141.65 7.94 141.99 9.07L141.99 9.07Q142.16 9.66 142.16 10.32L142.16 10.32Q142.16 10.85 142.04 11.38L142.04 11.38Q141.75 12.64 140.83 13.38Q139.92 14.11 138.56 14.11L138.56 14.11ZM138.56 11.86Q138.92 11.86 139.15 11.61Q139.37 11.37 139.45 10.96L139.45 10.96Q139.51 10.70 139.51 10.33L139.51 10.33Q139.51 10.01 139.44 9.69L139.44 9.69Q139.23 8.86 138.56 8.86L138.56 8.86Q137.86 8.86 137.68 9.69L137.68 9.69Q137.61 9.93 137.61 10.33L137.61 10.33Q137.61 10.70 137.66 10.96L137.66 10.96Q137.87 11.86 138.56 11.86L138.56 11.86ZM147.01 6.62Q147.45 6.62 147.73 6.78L147.73 6.78Q147.91 6.87 147.87 7.11L147.87 7.11L147.53 9.17Q147.49 9.41 147.22 9.35L147.22 9.35Q147.07 9.31 146.85 9.31L146.85 9.31Q146.65 9.31 146.44 9.35L146.44 9.35Q146.08 9.42 145.82 9.65Q145.56 9.88 145.56 10.28L145.56 10.28L145.56 13.73Q145.56 14 145.29 14L145.29 14L143.19 14Q142.93 14 142.93 13.73L142.93 13.73L142.93 6.99Q142.93 6.72 143.19 6.72L143.19 6.72L145.29 6.72Q145.56 6.72 145.56 6.99L145.56 6.99L145.56 7.18Q145.56 7.25 145.59 7.28Q145.63 7.31 145.67 7.25L145.67 7.25Q146.19 6.62 147.01 6.62L147.01 6.62Z"></path></g><!----><!----></svg>